
<svg width="25" height="23" viewBox="0 0 25 23" fill="none" xmlns="http://www.w3.org/2000/svg">
<path d="M23.2843 5.63265H18.1373V5.39796C18.1373 3.96633 17.5433 2.59334 16.4861 1.58103C15.429 0.568712 13.9951 0 12.5 0C11.0049 0 9.57105 0.568712 8.51386 1.58103C7.45667 2.59334 6.86275 3.96633 6.86275 5.39796V5.63265H1.71569C1.26066 5.63265 0.824267 5.80574 0.502513 6.11383C0.180759 6.42193 0 6.8398 0 7.27551V21.3571C0 21.7929 0.180759 22.2107 0.502513 22.5188C0.824267 22.8269 1.26066 23 1.71569 23H23.2843C23.7393 23 24.1757 22.8269 24.4975 22.5188C24.8192 22.2107 25 21.7929 25 21.3571V7.27551C25 6.8398 24.8192 6.42193 24.4975 6.11383C24.1757 5.80574 23.7393 5.63265 23.2843 5.63265ZM8.33333 5.39796C8.33333 4.3398 8.77232 3.32498 9.55372 2.57675C10.3351 1.82852 11.3949 1.40816 12.5 1.40816C13.6051 1.40816 14.6649 1.82852 15.4463 2.57675C16.2277 3.32498 16.6667 4.3398 16.6667 5.39796V5.63265H8.33333V5.39796ZM23.5294 21.3571C23.5294 21.4194 23.5036 21.4791 23.4576 21.5231C23.4117 21.5671 23.3493 21.5918 23.2843 21.5918H1.71569C1.65068 21.5918 1.58834 21.5671 1.54238 21.5231C1.49641 21.4791 1.47059 21.4194 1.47059 21.3571V7.27551C1.47059 7.21327 1.49641 7.15357 1.54238 7.10956C1.58834 7.06554 1.65068 7.04082 1.71569 7.04082H6.86275V9.15306C6.86275 9.3398 6.94021 9.51888 7.07811 9.65092C7.216 9.78296 7.40303 9.85714 7.59804 9.85714C7.79305 9.85714 7.98008 9.78296 8.11797 9.65092C8.25587 9.51888 8.33333 9.3398 8.33333 9.15306V7.04082H16.6667V9.15306C16.6667 9.3398 16.7441 9.51888 16.882 9.65092C17.0199 9.78296 17.2069 9.85714 17.402 9.85714C17.597 9.85714 17.784 9.78296 17.9219 9.65092C18.0598 9.51888 18.1373 9.3398 18.1373 9.15306V7.04082H23.2843C23.3493 7.04082 23.4117 7.06554 23.4576 7.10956C23.5036 7.15357 23.5294 7.21327 23.5294 7.27551V21.3571Z" fill="#4D3D30"/>
<path d="M12.5 10V19" stroke="#4D3D30" stroke-linecap="round"/>
<path d="M8 14.5H17" stroke="#4D3D30" stroke-linecap="round"/>
</svg>
