<svg width="40" height="33" viewBox="0 0 40 33" fill="none" xmlns="http://www.w3.org/2000/svg">
<path d="M22.7852 32.6681C22.7047 32.5882 22.6408 32.4932 22.5971 32.3885C22.5534 32.2837 22.5308 32.1714 22.5306 32.0578C22.5304 31.9442 22.5525 31.8317 22.5958 31.7265C22.6391 31.6214 22.7027 31.5258 22.7829 31.4452L36.8372 17.2994L0.896989 17.4646C0.667774 17.4657 0.447774 17.3756 0.285387 17.2143C0.123001 17.053 0.0315278 16.8335 0.0310941 16.6043C0.0306603 16.3751 0.121301 16.1549 0.283075 15.992C0.444848 15.8292 0.664503 15.7371 0.893719 15.7361L36.8339 15.5708L22.7263 1.55453C22.6459 1.4746 22.582 1.37956 22.5384 1.27485C22.4947 1.17013 22.4721 1.05778 22.4719 0.944224C22.4717 0.830664 22.4938 0.718113 22.5371 0.612997C22.5804 0.507881 22.6439 0.412259 22.724 0.331591C22.8042 0.250922 22.8994 0.186787 23.0042 0.142847C23.109 0.0989075 23.2214 0.0760236 23.335 0.0755015C23.4486 0.0749794 23.5611 0.0968293 23.666 0.139805C23.771 0.18278 23.8665 0.246038 23.9469 0.325968L39.533 15.8112C39.6135 15.8911 39.6775 15.9862 39.7212 16.0909C39.7648 16.1956 39.7874 16.308 39.7877 16.4215C39.7879 16.5351 39.7657 16.6477 39.7224 16.7528C39.6791 16.8579 39.6155 16.9535 39.5353 17.0342L24.0081 32.6625C23.928 32.7432 23.8328 32.8074 23.728 32.8514C23.6231 32.8953 23.5107 32.9182 23.3971 32.9188C23.2836 32.9193 23.1711 32.8974 23.0661 32.8544C22.9611 32.8114 22.8656 32.7481 22.7852 32.6681Z" fill="#4D3D30"/>
</svg>
