
<svg width="27" height="27" viewBox="0 0 27 27" fill="none" xmlns="http://www.w3.org/2000/svg">
<path d="M22.7812 6.96094H18.3516V6.75C18.3516 5.46329 17.8404 4.22927 16.9306 3.31943C16.0207 2.40958 14.7867 1.89844 13.5 1.89844C12.2133 1.89844 10.9793 2.40958 10.0694 3.31943C9.15958 4.22927 8.64844 5.46329 8.64844 6.75V6.96094H4.21875C3.82714 6.96094 3.45157 7.1165 3.17466 7.39341C2.89775 7.67032 2.74219 8.04589 2.74219 8.4375V21.0938C2.74219 21.4854 2.89775 21.8609 3.17466 22.1378C3.45157 22.4147 3.82714 22.5703 4.21875 22.5703H22.7812C23.1729 22.5703 23.5484 22.4147 23.8253 22.1378C24.1022 21.8609 24.2578 21.4854 24.2578 21.0938V8.4375C24.2578 8.04589 24.1022 7.67032 23.8253 7.39341C23.5484 7.1165 23.1729 6.96094 22.7812 6.96094ZM9.91406 6.75C9.91406 5.79895 10.2919 4.88685 10.9644 4.21436C11.6369 3.54187 12.549 3.16406 13.5 3.16406C14.451 3.16406 15.3631 3.54187 16.0356 4.21436C16.7081 4.88685 17.0859 5.79895 17.0859 6.75V6.96094H9.91406V6.75ZM22.9922 21.0938C22.9922 21.1497 22.97 21.2033 22.9304 21.2429C22.8908 21.2825 22.8372 21.3047 22.7812 21.3047H4.21875C4.16281 21.3047 4.10915 21.2825 4.06959 21.2429C4.03004 21.2033 4.00781 21.1497 4.00781 21.0938V8.4375C4.00781 8.38156 4.03004 8.3279 4.06959 8.28834C4.10915 8.24879 4.16281 8.22656 4.21875 8.22656H8.64844V10.125C8.64844 10.2928 8.71511 10.4538 8.83378 10.5725C8.95246 10.6911 9.11342 10.7578 9.28125 10.7578C9.44908 10.7578 9.61004 10.6911 9.72872 10.5725C9.84739 10.4538 9.91406 10.2928 9.91406 10.125V8.22656H17.0859V10.125C17.0859 10.2928 17.1526 10.4538 17.2713 10.5725C17.39 10.6911 17.5509 10.7578 17.7188 10.7578C17.8866 10.7578 18.0475 10.6911 18.1662 10.5725C18.2849 10.4538 18.3516 10.2928 18.3516 10.125V8.22656H22.7812C22.8372 8.22656 22.8908 8.24879 22.9304 8.28834C22.97 8.3279 22.9922 8.38156 22.9922 8.4375V21.0938Z" fill="white"/>
</svg>
