
<svg width="27" height="23" viewBox="0 0 27 23" fill="none" xmlns="http://www.w3.org/2000/svg">
<path d="M19.5268 0C17.0377 0 14.8584 1.064 13.5 2.8625C12.1416 1.064 9.96228 0 7.47321 0C5.49188 0.00221995 3.59234 0.785612 2.19132 2.17831C0.790305 3.571 0.00223321 5.45927 0 7.42883C0 15.8162 12.5104 22.6052 13.0432 22.8856C13.1836 22.9607 13.3406 23 13.5 23C13.6594 23 13.8164 22.9607 13.9568 22.8856C14.4896 22.6052 27 15.8162 27 7.42883C26.9978 5.45927 26.2097 3.571 24.8087 2.17831C23.4077 0.785612 21.5081 0.00221995 19.5268 0ZM13.5 20.9445C11.299 19.6696 1.92857 13.862 1.92857 7.42883C1.93049 5.96762 2.51527 4.5668 3.55467 3.53356C4.59408 2.50033 6.00327 1.91902 7.47321 1.91712C9.81763 1.91712 11.786 3.15845 12.608 5.15226C12.6807 5.32807 12.8043 5.47844 12.9631 5.58427C13.1219 5.69009 13.3088 5.74659 13.5 5.74659C13.6912 5.74659 13.8781 5.69009 14.0369 5.58427C14.1957 5.47844 14.3193 5.32807 14.392 5.15226C15.214 3.15486 17.1824 1.91712 19.5268 1.91712C20.9967 1.91902 22.4059 2.50033 23.4453 3.53356C24.4847 4.5668 25.0695 5.96762 25.0714 7.42883C25.0714 13.8524 15.6986 19.6684 13.5 20.9445Z" fill="#4D3D30"/>
</svg>
