
<svg width="26" height="25" viewBox="0 0 26 25" fill="none" xmlns="http://www.w3.org/2000/svg">
<path d="M23.2773 20.8008C21.6716 18.1329 19.1508 16.2608 16.2217 15.4669C17.6458 14.7708 18.7845 13.6339 19.4544 12.2394C20.1242 10.8449 20.2861 9.27416 19.9139 7.78039C19.5417 6.28662 18.6571 4.95691 17.4029 4.00568C16.1486 3.05444 14.5976 2.53711 13.0002 2.53711C11.4027 2.53711 9.85175 3.05444 8.59745 4.00568C7.34316 4.95691 6.45861 6.28662 6.08642 7.78039C5.71424 9.27416 5.87611 10.8449 6.54595 12.2394C7.21578 13.6339 8.35454 14.7708 9.77859 15.4669C6.84953 16.2598 4.32875 18.1319 2.72304 20.8008C2.67895 20.8675 2.64935 20.9421 2.63601 21.0201C2.62267 21.0981 2.62587 21.1778 2.64543 21.2546C2.66498 21.3313 2.70048 21.4035 2.74979 21.4667C2.79909 21.5299 2.86119 21.5829 2.93235 21.6225C3.0035 21.662 3.08224 21.6873 3.16382 21.6968C3.24541 21.7064 3.32816 21.6999 3.40709 21.6779C3.48602 21.6559 3.5595 21.6188 3.62312 21.5687C3.68673 21.5187 3.73917 21.4568 3.77726 21.3868C5.72828 18.1456 9.17531 16.211 13.0002 16.211C16.825 16.211 20.272 18.1456 22.223 21.3868C22.2611 21.4568 22.3136 21.5187 22.3772 21.5687C22.4408 21.6188 22.5143 21.6559 22.5932 21.6779C22.6721 21.6999 22.7549 21.7064 22.8365 21.6968C22.9181 21.6873 22.9968 21.662 23.068 21.6225C23.1391 21.5829 23.2012 21.5299 23.2505 21.4667C23.2998 21.4035 23.3353 21.3313 23.3549 21.2546C23.3744 21.1778 23.3776 21.0981 23.3643 21.0201C23.351 20.9421 23.3214 20.8675 23.2773 20.8008ZM7.10953 9.37506C7.10953 8.25482 7.45501 7.15973 8.10228 6.22828C8.74955 5.29683 9.66954 4.57085 10.7459 4.14215C11.8223 3.71345 13.0067 3.60129 14.1494 3.81983C15.292 4.03838 16.3416 4.57783 17.1655 5.36997C17.9893 6.1621 18.5503 7.17134 18.7776 8.27006C19.0049 9.36878 18.8882 10.5076 18.4424 11.5426C17.9965 12.5776 17.2415 13.4622 16.2728 14.0846C15.3041 14.7069 14.1652 15.0391 13.0002 15.0391C11.4384 15.0373 9.94123 14.44 8.83693 13.3782C7.73263 12.3163 7.11141 10.8767 7.10953 9.37506Z" fill="white"/>
</svg>
